<?xml version="1.0" standalone="no"?>
<!DOCTYPE svg PUBLIC "-//W3C//DTD SVG 20010904//EN"
 "http://www.w3.org/TR/2001/REC-SVG-20010904/DTD/svg10.dtd">
<svg version="1.0" xmlns="http://www.w3.org/2000/svg"
 width="200.000000pt" height="200.000000pt" viewBox="0 0 200.000000 200.000000"
 preserveAspectRatio="xMidYMid meet">

<g transform="translate(0.000000,200.000000) scale(0.100000,-0.100000)"
fill="#000000" stroke="none">
<path d="M310 1295 c0 -14 -8 -29 -20 -35 -11 -6 -20 -20 -20 -30 0 -11 -6
-20 -14 -20 -14 0 -18 -8 -30 -62 l-6 -28 85 0 c134 0 185 32 185 117 0 51
-26 73 -95 81 -37 4 -45 2 -45 -12 0 -9 8 -16 19 -16 30 0 44 -26 38 -68 -7
-41 -46 -82 -78 -82 -25 0 -24 10 7 158 3 15 0 22 -11 22 -9 0 -15 -9 -15 -25z"/>
<path d="M542 1223 c-48 -78 -57 -99 -44 -102 9 -2 24 6 33 18 24 30 108 31
116 1 4 -16 14 -20 44 -20 22 0 39 3 39 8 0 4 -10 49 -22 100 l-22 92 -42 0
-42 0 -60 -97z m91 -35 c-5 -9 -73 -11 -73 -3 0 3 12 24 27 47 l28 41 11 -39
c6 -21 9 -42 7 -46z"/>
<path d="M772 1253 c-6 -38 -14 -83 -18 -100 -6 -30 -4 -33 19 -33 23 0 26 5
33 48 11 80 16 81 70 13 47 -59 51 -61 95 -61 l46 0 16 93 c21 116 22 107 -8
107 -19 0 -25 -5 -26 -22 0 -13 -6 -45 -12 -72 l-12 -49 -58 71 c-53 67 -61
72 -96 72 l-38 0 -11 -67z"/>
<path d="M1080 1263 c-6 -32 -13 -68 -16 -80 -3 -15 3 -30 17 -44 19 -19 30
-21 106 -17 77 3 87 5 108 30 13 15 25 47 29 75 4 26 10 58 13 71 4 18 1 22
-20 22 -27 0 -30 -7 -42 -92 -4 -26 -15 -54 -25 -63 -19 -17 -69 -23 -90 -10
-12 8 -10 55 6 133 6 32 6 32 -34 32 l-41 0 -11 -57z"/>
<path d="M1375 1308 c-2 -7 -9 -44 -15 -83 -6 -38 -13 -78 -16 -87 -5 -16 4
-18 99 -18 90 0 108 3 131 21 34 27 33 45 -4 68 l-31 18 31 13 c39 16 42 56 4
70 -38 15 -194 13 -199 -2z m145 -31 c0 -20 -22 -37 -47 -37 -18 0 -23 6 -23
25 0 22 4 25 35 25 22 0 35 -5 35 -13z m-19 -67 c10 -6 19 -15 19 -20 0 -19
-40 -50 -65 -50 -27 0 -28 2 -19 49 7 33 28 40 65 21z"/>
<path d="M1655 1308 c-2 -7 -9 -44 -15 -83 -7 -38 -14 -78 -17 -87 -4 -16 5
-18 90 -18 75 0 96 3 101 15 4 12 -5 15 -50 15 -52 0 -55 1 -52 23 3 19 10 22
51 25 39 3 47 6 47 23 0 16 -7 19 -40 19 -33 0 -40 3 -40 20 0 18 7 20 54 20
45 0 54 3 59 20 5 19 0 20 -89 20 -67 0 -96 -4 -99 -12z"/>
<path d="M697 1076 c-73 -27 -117 -86 -117 -156 0 -82 39 -110 152 -110 117 0
188 46 208 134 12 55 -4 103 -43 122 -43 23 -152 28 -200 10z m117 -62 c36
-35 9 -122 -43 -144 -65 -26 -103 38 -66 110 25 49 78 66 109 34z"/>
<path d="M200 1023 c-6 -32 -18 -86 -26 -121 -21 -94 -21 -94 33 -90 l48 3 10
50 11 50 63 3 63 3 -7 -55 -6 -56 53 0 54 0 23 113 c12 61 25 122 28 135 5 21
2 22 -50 22 -54 0 -56 -1 -62 -32 -14 -70 -11 -68 -82 -68 -64 0 -65 0 -59 25
3 14 9 36 12 50 6 24 4 25 -44 25 l-51 0 -11 -57z"/>
<path d="M1015 1068 c-2 -7 -13 -60 -25 -118 -12 -58 -24 -113 -27 -123 -4
-16 1 -18 44 -15 l48 3 20 100 c12 55 24 95 27 90 3 -6 9 -41 13 -80 11 -118
10 -115 70 -115 l53 0 57 101 c31 55 58 99 60 97 2 -2 -5 -42 -15 -88 -26
-115 -28 -110 29 -110 l49 0 17 78 c9 42 22 103 29 135 l13 57 -86 0 -86 0
-44 -85 c-24 -47 -48 -85 -53 -85 -4 0 -8 17 -8 39 0 21 -3 59 -6 85 l-7 46
-84 0 c-58 0 -85 -4 -88 -12z"/>
<path d="M1526 953 c-14 -71 -26 -131 -26 -135 0 -5 58 -8 129 -8 l129 0 4 25
c3 13 3 27 0 30 -3 3 -36 5 -74 5 -66 0 -69 1 -66 23 3 20 9 22 76 25 39 2 72
7 72 12 0 4 3 15 6 24 5 14 -4 16 -65 16 -73 0 -80 5 -65 44 5 13 22 16 79 16
72 0 85 6 85 41 0 5 -57 9 -128 9 l-129 0 -27 -127z"/>
</g>
</svg>
